<svg version="1.2" xmlns="http://www.w3.org/2000/svg" viewBox="67 -41 778 777.9999999999999" width="1000" height="1000">
	<title>onPurposeColor</title>
	<style>
		.s0 { fill: #f8f6f3 } 
		.s1 { fill: #4e6d64 } 
		.s2 { fill: #d0b49f } 
	</style>
	<g>
		<g>
			<g>
			</g>
			<path id="Shape 1" fill-rule="evenodd" class="s0" d="m456 737c-215.1 0-389-173.9-389-389 0-215.1 173.9-389 389-389 215.1 0 389 173.9 389 389 0 215.1-173.9 389-389 389z"/>
		</g>
		<path class="s1" d="m552.6 323h-77.9c0 30.7 0.3 97.1 0 142.3 13.3 0 26.7 0.3 40.3 0.9-13.3 0.9-27 2.1-40.3 4.5-11.8 2.2-23.7 4.6-35.5 7.9-0.6 0.3-1.2 0.3-1.5 0.6-23.4 6.7-48.8 15.8-68.6 30.4-6.9 5.1-14.2 14.5-12.7 23.6 1.5 8.8 10 16.1 16.7 21.2 34.3 26.7 79.8 34 113.1 61.9 6.7 5.5 12.8 11.8 15.8 19.7 4.5 11.6 2.1 25.2-3.6 36.1-4.6 8.8-11.3 16.4-18.2 24q-11.9 0.9-23.7 0.9c-127.1 0-238.4-68.2-299.4-170.2-25.1 4.9-50.6 10.4-76.1 17 1.8-0.9 27.6-12.4 70.7-26.7 12.4-3.9 26.4-8.5 41.8-12.7 62.5-17.6 147.4-34.9 243.9-38.2 0-45.5 0-112.2 0-142.9h-78q0-18.8 0-37.3h78c0-26.4 0-53.1 0-79.4h37.3c0 26.3 0 53-0.3 79.4h77.9v37z"/>
		<g>
			<g>
				<g>
					<path class="s2" d="m456.8 0c-192 0-348.5 156.2-348.5 348.5 0 53.4 12.1 104 33.7 149.5 0.9-0.3 2.1-0.6 3.3-0.9 12.4-4.2 25.2-7.9 37.9-11.5-20.6-41.3-32.4-87.7-32.4-136.8 0-168.6 137.4-306 306-306 168.6 0 306 137.4 306 306 0 47.9-11.2 93.4-30.9 133.8q19.1 5.7 38.2 12.7l2.4 0.9c21.3-44.9 32.8-94.9 32.8-147.7 0-192-156.5-348.5-348.5-348.5z"/>
				</g>
				<g>
					<path class="s2" d="m831.1 543.5c-2.1-0.6-29.4-7.6-75.8-15.7-26.7 44.2-63.1 82.2-105.9 110.7-7-12.5-17.9-22.5-30-30.4-57.4-38.2-135-37.6-189.9-79.4-4.2-3.4-8.8-7.3-9.7-12.8-1.2-8.5 7-15.1 14.6-19.4 0.9-0.6 2.1-1.2 3-1.5 11.8-6.1 24.3-10.9 37-14.6 20.3-6 41.2-9.7 62.2-12.7 59.4 4.2 121.6 14.6 184.7 33.7q20.3 6.3 40.9 13.6c23.4 8.5 46.1 17.9 68.9 28.5z"/>
				</g>
			</g>
		</g>
	</g>
</svg>