<svg xmlns="http://www.w3.org/2000/svg" width="848" height="228" viewBox="0 0 848 228">
<title>On Purpose - smooth vector master</title>
<path fill="#272A28" fill-rule="evenodd" d="M52 17 C27 15 11 30 11 55 L10 163 C9 191 24 205 48 205 C76 205 92 189 92 162 L92 55 C92 31 77 17 52 17 Z M51 40 C44 40 41 45 41 53 L41 167 C41 174 45 178 50 178 C57 178 61 174 61 166 L61 53 C61 44 58 40 51 40 Z M102 16 L124 15 C127 15 128 17 129 21 L158 116 L156 16 C156 13 157 13 159 13 L182 12 C184 12 185 13 185 16 L186 194 C186 197 185 198 182 198 L162 198 C159 198 159 197 158 194 L127 91 L129 195 C129 197 128 198 126 198 L104 199 C101 199 101 198 101 195 L100 20 C100 17 100 16 102 16 Z M244 11 C261 10 277 9 291 10 C320 11 335 25 336 51 L336 72 C335 103 319 117 295 125 L277 133 C274 134 273 136 273 140 L273 189 L241 192 C239 192 239 191 239 189 L242 15 C242 12 242 11 244 11 Z M276 37 C274 37 274 38 274 41 L273 102 C281 100 290 97 296 91 C302 85 303 78 303 68 L303 52 C303 39 296 35 287 36 Z M346 14 L369 14 C371 14 372 15 372 18 L374 144 C374 150 377 153 383 153 C388 153 391 150 391 145 L393 20 C393 18 394 17 396 17 L418 17 C421 17 422 18 422 21 L420 142 C420 165 404 177 382 177 C359 177 345 166 344 145 L344 17 C344 15 344 14 346 14 Z M433 17 C448 17 461 14 474 15 C500 15 514 26 514 51 L514 75 C514 97 507 107 493 115 L514 178 C515 181 514 181 512 181 L486 180 C484 180 484 179 483 176 L466 122 L461 123 C459 123 459 124 459 127 L459 176 C459 178 458 178 456 178 L433 177 C431 177 430 176 430 174 L432 20 C432 18 432 17 433 17 Z M462 38 C460 38 460 39 460 41 L460 96 C460 98 461 98 463 98 C479 95 485 87 485 73 L485 52 C485 40 478 35 462 38 Z M527 11 C542 11 557 9 570 10 C600 10 618 24 619 51 L619 76 C618 102 605 114 583 123 L560 133 C557 134 556 136 556 140 L556 183 L524 182 C522 182 522 181 522 179 L525 14 C525 12 525 11 527 11 Z M560 37 C558 37 557 38 557 41 L556 99 C556 102 557 102 559 101 C580 95 586 87 586 71 L586 51 C586 38 578 35 567 36 Z M668 15 C641 14 627 29 627 54 L626 142 C626 171 640 185 666 186 C692 188 707 173 708 148 L708 55 C708 28 694 15 668 15 Z M668 37 C661 36 657 41 657 48 L657 151 C657 159 660 163 667 163 C674 163 678 160 678 152 L677 49 C677 41 674 37 668 37 Z M748 10 C771 10 781 25 781 49 L780 69 L759 69 L758 47 C758 37 755 33 750 33 C744 33 741 39 742 49 C742 68 752 84 763 103 C776 125 784 145 784 168 C784 194 773 207 752 206 C728 205 716 191 716 165 L716 138 C716 136 717 136 719 136 L737 137 C739 137 740 138 740 140 L740 163 C740 173 743 179 749 179 C755 179 758 174 758 166 C758 148 750 132 739 113 C724 88 714 71 714 49 C714 24 726 10 748 10 Z M793 17 L841 19 C843 19 843 20 843 22 L843 42 L820 41 C817 41 817 42 817 45 L817 93 L835 95 C838 95 838 96 838 98 L838 116 L818 117 L818 187 C818 190 819 192 822 192 L841 196 C843 196 843 197 843 199 L843 218 C843 220 842 220 840 220 L795 211 C793 211 792 210 792 207 L791 20 C791 18 791 17 793 17 Z"/>
</svg>