<svg xmlns="http://www.w3.org/2000/svg" width="335" height="335" viewBox="0 0 335 335">
  <title>On Purpose favicon on parchment</title>
  <rect width="335" height="335" fill="#F7F4EC"/>
  <path fill="#A95632" fill-rule="evenodd" d="M44 128 C55 106 73 86 92 72 C106 61 116 64 131 52 C145 41 159 37 170 32 C184 25 194 37 205 42 C215 47 220 47 226 56 C231 64 242 63 249 70 C255 76 254 85 264 92 C275 98 280 106 284 118 C289 130 294 140 298 153 C283 145 273 143 260 137 C247 132 241 127 230 125 C220 122 215 111 205 111 C197 111 189 113 180 116 L180 96 L200 96 C202 96 202 95 202 94 L202 86 C202 85 201 85 200 85 L180 85 L180 67 C180 66 179 66 178 66 L167 66 C166 66 166 67 166 68 L166 85 L146 85 C145 85 144 86 144 87 L144 94 C144 95 145 96 146 96 L166 96 L166 116 C155 113 145 109 133 109 C123 109 116 107 109 108 C95 111 85 111 74 116 C59 123 47 133 44 128 Z"/>
  <path fill="#50533F" fill-rule="evenodd" d="M28 165 C33 152 49 150 59 142 C73 131 82 123 98 123 C111 124 118 123 127 124 C136 125 150 127 159 128 C164 128 166 129 166 133 L164 163 C164 168 156 170 150 170 C137 172 119 178 113 184 C104 193 118 198 128 202 C142 207 157 210 162 218 C167 227 150 236 139 244 C120 255 104 267 87 281 C68 269 53 251 43 231 C31 208 27 184 28 165 Z"/>
  <path fill="#272A28" fill-rule="evenodd" d="M188 125 L208 125 C214 125 218 130 224 134 C232 140 240 144 251 147 C267 153 284 156 299 167 C303 170 305 173 304 179 C299 230 272 268 234 289 C212 301 189 306 164 305 C180 289 197 273 208 256 C219 240 223 227 212 214 C205 206 194 200 187 195 C181 193 181 188 181 182 L180 134 C180 128 183 125 188 125 Z"/>
</svg>
