<svg version="1.2" xmlns="http://www.w3.org/2000/svg" viewBox="-5.684341886080802e-14 234.41671585725786 994 568.2095519184332" width="995" height="569">
	<title>onPurposeWhite</title>
	<defs>
		<filter x="-50%" y="-50%" width="200%" height="200%" id="f1"> <feGaussianBlur stdDeviation="NaN"/> </filter>
	</defs>
	<style>
		.s0 { fill: #ffffff } 
		.s1 { filter: url(#f1);fill: none } 
	</style>
	<g>
		<g>
			<g>
				<path class="s0" d="m57.5 802c-21.9 0-40.6-11.1-50.3-28.8-4.7-8.7-7.2-18.4-7.2-29.1 0-21.4 10.1-39.6 27.6-50.2 8.8-5.2 18.8-7.7 29.6-7.7 22 0 40.7 11.1 50.3 28.7 4.9 8.6 7.3 18.5 7.3 29.2 0 21.3-10.1 39.6-27.7 50.1-8.7 5.1-18.7 7.8-29.6 7.8zm0-14.2c12.2 0 22.2-4.2 30.2-12.6 8-8.4 12-18.8 12-31.1q0-18.4-12-31.2c-8-8.4-18-12.6-30.2-12.6-12.3 0-22.2 4.3-30.2 12.6q-12 12.8-12 31.2c0 12.3 4 22.7 12 31.1 8 8.5 17.9 12.6 30.2 12.6z"/>
				<path class="s0" d="m229.9 689.1v112.1h-0.4l-76.8-80.6h-0.4l0.1 78.7h-14.6v-112h0.4l76.6 80.5h0.4v-78.7z"/>
				<path class="s0" d="m343.2 689.1c21.6 0 34.3 13.6 34.3 34 0 19.8-12.4 33.9-34.3 33.9h-27.3v42.3h-14.7v-110.2zm-1.4 55.1c13.6 0 20.9-7.8 20.9-21.1 0-13.3-7.5-21.2-20.9-21.2l-25.6 0.2v42.1z"/>
				<path class="s0" d="m395.5 689.1h14.6v68.3c0 18.8 10.6 30.6 29.8 30.6 19 0 29.8-11.6 29.8-30.6v-68.3h14.6v68.7c0 14-4.1 24.8-12.2 32.7-8.2 7.9-19.1 11.6-32.3 11.6-13.3 0-24-3.7-32.4-11.6-8.1-7.9-12.3-18.7-12.3-32.7v-68.7z"/>
				<path class="s0" d="m591.5 799.2h-17.4l-44.4-58.8 0.9 0.2v-0.2h22c15.5 0 22.8-6 22.8-19.3 0-13.3-7.3-19.3-22.8-19.3h-24.8v97.4h-14.7v-110.2h42.7c22.1 0 34.3 12.3 34.3 32.1 0 18.5-12 29.9-35.4 30.5z"/>
				<path class="s0" d="m652.5 689.1c21.6 0 34.3 13.6 34.3 34 0 19.8-12.3 33.9-34.3 33.9h-27.3v42.3h-14.7v-110.2zm-1.5 55.1c13.6 0 21-7.8 21-21.1 0-13.3-7.5-21.2-21-21.2l-25.6 0.2v42.1z"/>
				<path class="s0" d="m756.4 802c-21.9 0-40.6-11.1-50.3-28.8-4.7-8.7-7.2-18.4-7.2-29.1 0-21.4 10.1-39.6 27.6-50.2 8.8-5.2 18.8-7.7 29.6-7.7 22 0 40.7 11.1 50.3 28.7 4.9 8.6 7.3 18.5 7.3 29.2 0 21.3-10.1 39.6-27.7 50.1-8.7 5.1-18.6 7.8-29.6 7.8zm0-14.2c12.2 0 22.2-4.2 30.2-12.6 8-8.4 12-18.8 12-31.1q0-18.4-12-31.2c-8-8.4-18-12.6-30.2-12.6-12.2 0-22.2 4.3-30.2 12.6q-12 12.8-12 31.2c0 12.3 4 22.7 12 31.1 8 8.5 18.2 12.6 30.2 12.6z"/>
				<path class="s0" d="m830.1 793.3l2.3-14.1c9.6 6.5 19.6 9.7 30 9.7 13.6 0 23.9-6.7 23.9-18.8 0-4.9-2.2-9.2-4.6-11.7-1.2-1.4-3-2.7-5.7-4l-6.6-3.1c-1.6-0.9-4.1-1.7-7.4-2.9-0.2-0.2-0.7-0.3-1-0.4-2.8-1.1-4.8-1.9-6.5-2.4-2.8-1.2-8.9-4.2-12-6-2.8-2-7.1-5.5-9.1-9-1.8-3.7-3.3-8.5-3.3-14.1 0-21.4 18.4-30 36.9-30 11.1 0 20.9 2.6 29.1 7.8l-2.2 14c-8.6-5.7-17.2-8.5-26.6-8.5-12.7 0-22 5.9-22 16.3 0 4.1 2 7.4 4 9.8 1.1 1 2.7 2.3 4.9 3.5l5.5 2.7 6.7 2.7c0.8 0.2 1 0.2 2 0.8l2.3 1c2.8 1 5 2 6.5 2.7 2.9 0.9 9.1 3.7 12.1 6.1 2.8 2 7.2 5.9 9 9.5 1.8 3.6 3.6 8.8 3.6 14.8 0 23.9-20 32.9-38.9 32.9-13.7-0.6-24.5-3.4-32.9-9.3z"/>
				<path class="s0" d="m994 689.1v13.4h-55.9v33.9h51.2v13.3h-51.2v36.3h55.9v13.3h-70.7v-110.2z"/>
			</g>
		</g>
		<path class="s0" d="m549.9 411.6h-42.8c0 16.8 0.2 53.4 0 78.2 7.4 0 14.7 0.1 22.2 0.4-7.4 0.5-14.8 1.2-22.2 2.5-6.5 1.2-12.9 2.6-19.4 4.4-0.3 0.2-0.7 0.2-0.8 0.3-12.8 3.7-26.8 8.7-37.6 16.7-3.9 2.8-7.9 8-7.1 12.9 0.9 4.8 5.6 8.8 9.2 11.7 18.8 14.6 43.7 18.6 62.1 33.9 3.6 3.1 7 6.5 8.6 10.8 2.5 6.4 1.2 13.9-1.9 19.9-2.5 4.8-6.3 8.9-10 13.2q-6.5 0.4-13.1 0.4c-69.7 0-130.8-37.5-164.3-93.4-13.7 2.7-27.7 5.6-41.7 9.4 1.1-0.6 15.2-6.8 38.8-14.7 6.8-2.1 14.4-4.7 22.9-6.9 34.3-9.8 81-19.2 133.9-21.1 0-25 0-61.5 0-78.3h-42.8q0-10.3 0-20.5h42.8q0-21.8 0-43.6h20.4c0 14.5 0 29-0.1 43.6h42.8v20.2z"/>
		<g>
			<g>
				<g>
					<path class="s0" d="m497.4 234.4c-105.5 0-191.4 85.8-191.4 191.2 0 29.4 6.7 57.1 18.6 82.1 0.5-0.2 1.2-0.3 1.8-0.4 6.8-2.4 13.8-4.4 20.8-6.4-11.3-22.6-17.8-48.1-17.8-75.1 0-92.6 75.5-167.9 168-167.9 92.4 0 167.9 75.3 167.9 167.9 0 26.4-6.1 51.3-16.9 73.5q10.4 3.2 20.9 6.9l1.3 0.5c11.6-24.7 18-52.1 18-81.1 0-105.3-85.9-191.2-191.2-191.2z"/>
				</g>
				<g>
					<path class="s0" d="m702.8 532.7c-1.2-0.4-16.2-4.1-41.6-8.6-14.7 24.2-34.7 45-58.2 60.6-3.9-6.8-9.9-12.2-16.4-16.5-31.5-21.1-74.1-20.7-104.3-43.6-2.2-1.9-4.8-4-5.3-7.1-0.7-4.6 3.9-8.2 8-10.6 0.5-0.3 1.2-0.7 1.7-0.8 6.4-3.4 13.2-6 20.3-8 11.2-3.4 22.7-5.4 34.1-7 32.6 2.3 66.7 8 101.4 18.4q11.2 3.5 22.4 7.5c12.9 4.7 25.3 9.9 37.9 15.7z"/>
				</g>
			</g>
		</g>
		<path class="s1" d=""/>
	</g>
</svg>